<svg height="408pt" viewBox="-4 0 408 408.26957" width="408pt" xmlns="http://www.w3.org/2000/svg"><path d="m175.914062 118.179688c-.117187-2.039063-.179687-4.097657-.179687-6.171876-.003906-60.941406 48.722656-110.703124 109.652344-111.9843745 60.929687-1.2773435 111.699219 46.3945315 114.25 107.2851565 2.554687 60.890625-44.046875 112.644531-104.871094 116.46875-2.320313.160156-4.667969.230468-7.03125.230468-59.457031.003907-108.550781-46.460937-111.820313-105.828124zm113.472657 56.558593c51.378906-20.808593 68.730469-58.320312 63.277343-86.410156-3.796874-18.828125-17.179687-31.058594-34.527343-31.058594-9.589844 0-20.160157 3.960938-30.402344 11.398438-10.410156-7.769531-20.820313-11.730469-30.570313-11.730469-17.347656 0-30.726562 12.230469-34.367187 31.390625-5.449219 28.421875 12.058594 66.089844 63.277344 86.410156 1.0625.441407 2.253906.441407 3.3125 0zm0 0" fill="#00efd1"/><path d="m352.664062 88.328125c5.453126 28.089844-11.898437 65.601563-63.277343 86.410156-1.058594.441407-2.25.441407-3.3125 0-51.21875-20.320312-68.726563-57.988281-63.277344-86.410156 3.640625-19.160156 17.019531-31.390625 34.367187-31.390625 9.75 0 20.160157 3.960938 30.570313 11.730469 10.242187-7.4375 20.8125-11.398438 30.402344-11.398438 17.347656 0 30.730469 12.230469 34.527343 31.058594zm0 0" fill="#00acea"/><path d="m294.765625 223.777344v.011718c-13.601563 64.066407-38.058594 125.335938-72.308594 181.160157-1.457031 2.363281-4.171875 3.640625-6.921875 3.25-2.75-.386719-5.003906-2.367188-5.75-5.039063l-6.238281-22.492187c-7.382813-26.621094-21.820313-50.757813-41.78125-69.859375l-2.480469-2.371094c-5.558594-5.316406-14.371094-5.128906-19.699218.421875l-2.050782 2.128906c-18.261718 19.015625-31.3125 42.414063-37.898437 67.941407l-6.128907 23.78125c-.707031 2.707031-2.960937 4.730468-5.730468 5.144531-2.765625.414062-5.515625-.863281-6.980469-3.246094-55.820313-90.890625-74.53125-179.269531-80.191406-230.710937-5.308594-48.410157 35-89.71875 83.539062-85.898438 11.3125.898438 20.871094 12.75 40.929688 21.339844 12.160156 5.210937 28.203125 9.210937 50.839843 8.839844 3.269532 59.367187 52.363282 105.832031 111.820313 105.828124 2.363281 0 4.710937-.070312 7.03125-.230468zm0 0" fill="#d4e1f4"/><path d="m176.785156 96.621094h.011719c-.707031 5.097656-1.0625 10.238281-1.0625 15.386718 0 2.066407.0625 4.125.179687 6.171876-22.636718.371093-38.679687-3.628907-50.839843-8.839844l.011719-.03125c7.691406-2.019532 30.230468-7.699219 51.699218-12.6875zm0 0" fill="#00acea"/></svg>