<svg aria-hidden="true" style="position: absolute; width: 0; height: 0; overflow: hidden;" version="1.1" xmlns="http://www.w3.org/2000/svg" xmlns:xlink="http://www.w3.org/1999/xlink">
    <defs>
        <symbol id="icon-notes" viewBox="0 0 24 24">
            <path d="M3 12.984v-1.969h18v1.969h-18zM3 6h18v2.016h-18v-2.016zM3 18v-2.016h12v2.016h-12z"></path>
        </symbol>
        <symbol id="icon-input" viewBox="0 0 24 24">
            <path d="M11.016 15.984v-3h-10.031v-1.969h10.031v-3l3.984 3.984zM21 3q0.844 0 1.43 0.586t0.586 1.43v14.016q0 0.797-0.609 1.383t-1.406 0.586h-18q-0.797 0-1.406-0.586t-0.609-1.383v-4.031h2.016v4.031h18v-14.063h-18v4.031h-2.016v-3.984q0-0.797 0.609-1.406t1.406-0.609h18z"></path>
        </symbol>
    </defs>
</svg>
