<svg height="424pt" viewBox="-4 0 424 424.26715" width="424pt" xmlns="http://www.w3.org/2000/svg"><path d="m291.09375 190.175781c.136719.054688.277344.105469.414062.152344 2.703126.988281 5.671876.988281 8.371094 0 .160156-.054687.316406-.113281.472656-.175781 55.488282-22.480469 74.199219-64.085938 68.132813-95.351563l-.011719-.054687c-4.59375-22.769532-21.226562-37.484375-42.375-37.484375-9.777344 0-20.167968 3.339843-30.332031 9.703125-10.28125-6.660156-20.566406-10.03125-30.636719-10.03125-21.285156 0-37.859375 14.878906-42.222656 37.886718-6.0625 31.59375 12.671875 73.328126 68.1875 95.355469zm-52.472656-92.359375c2.914062-15.347656 13.070312-24.882812 26.507812-24.882812 7.972656 0 16.890625 3.507812 25.785156 10.144531 2.808594 2.09375 6.652344 2.117187 9.484376.058594 8.902343-6.460938 17.789062-9.875 25.703124-9.875 13.386719 0 23.609376 9.429687 26.683594 24.617187 4.753906 24.585938-11.101562 57.746094-57.101562 76.890625-46.007813-18.75-61.839844-52.050781-57.0625-76.953125zm0 0"/><path d="m81.945312 416.789062c3.144532 5.121094 9.046876 7.867188 14.988282 6.972657 5.941406-.890625 10.773437-5.246094 12.277344-11.0625l6.136718-23.777344c6.257813-24.1875 18.628906-46.363281 35.925782-64.394531l2.046874-2.132813c2.277344-2.359375 6.03125-2.4375 8.402344-.175781l2.476563 2.371094c18.921875 18.101562 32.601562 40.980468 39.601562 66.214844l6.238281 22.492187c1.800782 6.480469 7.703126 10.96875 14.433594 10.96875 5.203125 0 10.035156-2.699219 12.757813-7.128906 33.628906-54.945313 57.976562-115.054688 72.070312-177.910157 61.273438-6.992187 107.269531-59.292968 106.382813-120.957031-.890625-61.664062-48.375-112.613281-109.824219-117.839843-61.449219-5.222657-116.855469 36.984374-128.140625 97.613281-18.269531 4.304687-35.777344 8.699219-43.964844 10.816406-6.40625-3.0625-12.558594-6.628906-18.402344-10.667969-7.730468-5.109375-14.410156-9.519531-22.605468-10.167968-25.46875-2.011719-50.503906 7.421874-68.3125 25.738281-17.808594 18.3125-26.535156 43.605469-23.808594 69.003906 5.074219 46.21875 22.394531 138.078125 81.320312 234.023437zm213.753907-400.785156c56.472656-.003906 102.628906 45.0625 103.972656 101.519532 1.347656 56.457031-42.609375 103.671874-99.019531 106.359374-56.40625 2.691407-104.652344-40.128906-108.683594-96.457031.070312-.460937.105469-.925781.097656-1.394531-.011718-.65625-.109375-1.3125-.285156-1.945312-.050781-1.355469-.085938-2.714844-.085938-4.082032.066407-57.414062 46.59375-103.941406 104.003907-104zm-119.886719 98.929688c-.042969 1.054687-.074219 2.109375-.089844 3.164062-3.554687-.121094-6.921875-.355468-10.097656-.707031 3.289062-.796875 6.707031-1.621094 10.1875-2.457031zm-140.035156 10.113281c14.488281-14.996094 34.921875-22.726563 55.707031-21.074219 4.082031.324219 8.921875 3.519532 15.046875 7.570313 13.210938 8.726562 32.761719 21.625 70.003906 22.597656 7.105469 59.21875 56.566406 104.265625 116.191406 105.824219-13.667968 58.835937-36.585937 115.132812-67.902343 166.785156l-5.605469-20.222656c-7.773438-28.007813-22.960938-53.402344-43.960938-73.5l-2.480468-2.371094c-8.753906-8.347656-22.605469-8.054688-31 .65625l-2.050782 2.132812c-19.199218 20.015626-32.929687 44.628907-39.875 71.480469l-5.53125 21.4375c-56.289062-92.542969-72.902343-180.789062-77.800781-225.34375-2.273437-20.597656 4.792969-41.132812 19.257813-55.972656zm0 0"/></svg>