<svg height="424pt" viewBox="-4 0 424 424.27097" width="424pt" xmlns="http://www.w3.org/2000/svg"><path d="m183.882812 126.171875c-.121093-2.039063-.179687-4.09375-.179687-6.167969-.007813-60.945312 48.71875-110.707031 109.648437-111.984375 60.929688-1.28125 111.699219 46.394531 114.25 107.28125 2.554688 60.890625-44.046874 112.648438-104.871093 116.472657-2.320313.160156-4.667969.230468-7.027344.230468-59.457031 0-108.554687-46.464844-111.820313-105.832031zm113.46875 56.5625c51.378907-20.8125 68.730469-58.320313 63.28125-86.410156-3.800781-18.832031-17.179687-31.0625-34.53125-31.0625-9.589843 0-20.160156 3.960937-30.398437 11.402343-10.410156-7.769531-20.820313-11.730468-30.570313-11.730468-17.351562 0-30.730468 12.230468-34.371093 31.390625-5.449219 28.417969 12.058593 66.089843 63.28125 86.410156 1.058593.4375 2.25.4375 3.308593 0zm0 0" fill="#00efd1"/><path d="m360.632812 96.324219c5.449219 28.089843-11.902343 65.597656-63.28125 86.410156-1.058593.4375-2.25.4375-3.308593 0-51.222657-20.320313-68.730469-57.992187-63.28125-86.410156 3.640625-19.160157 17.019531-31.390625 34.371093-31.390625 9.75 0 20.160157 3.960937 30.570313 11.730468 10.238281-7.441406 20.808594-11.402343 30.398437-11.402343 17.351563 0 30.730469 12.230469 34.53125 31.0625zm0 0" fill="#00acea"/><path d="m302.730469 231.773438v.007812c-13.601563 64.066406-38.058594 125.335938-72.308594 181.160156-1.457031 2.363282-4.171875 3.640625-6.921875 3.253906-2.746094-.390624-5.003906-2.367187-5.75-5.042968l-6.238281-22.488282c-7.382813-26.625-21.816407-50.761718-41.78125-69.859374l-2.480469-2.371094c-5.554688-5.320313-14.371094-5.132813-19.699219.417968l-2.050781 2.132813c-18.257812 19.011719-31.3125 42.410156-37.898438 67.9375l-6.128906 23.78125c-.707031 2.707031-2.960937 4.734375-5.730468 5.144531-2.765626.414063-5.511719-.863281-6.980469-3.246094-55.820313-90.886718-74.53125-179.269531-80.191407-230.707031-5.308593-48.410156 35-89.722656 83.542969-85.902343 11.308594.902343 20.867188 12.75 40.929688 21.339843 12.160156 5.210938 28.199219 9.210938 50.839843 8.839844 3.265626 59.367187 52.363282 105.832031 111.820313 105.832031 2.359375 0 4.707031-.070312 7.027344-.230468zm0 0" fill="#d4e1f4"/><path d="m184.75 104.613281h.011719c-.707031 5.097657-1.0625 10.242188-1.058594 15.390625 0 2.066406.058594 4.121094.179687 6.167969-22.640624.371094-38.679687-3.628906-50.839843-8.839844l.007812-.027343c7.691407-2.023438 30.230469-7.703126 51.699219-12.691407zm0 0" fill="#00acea"/><g fill="#083863"><path d="m291.089844 190.167969c.125.050781.25.101562.378906.140625 2.726562 1.007812 5.726562 1.007812 8.457031 0 .144531-.050782.289063-.101563.429688-.160156 55.484375-22.472657 74.199219-64.082032 68.128906-95.347657l-.011719-.0625c-4.59375-22.765625-21.226562-37.476562-42.371094-37.476562-9.785156 0-20.175781 3.339843-30.332031 9.703125-10.277343-6.660156-20.558593-10.03125-30.636719-10.03125-21.28125 0-37.855468 14.875-42.226562 37.882812-6.058594 31.59375 12.675781 73.332032 68.183594 95.351563zm-52.46875-92.351563c2.914062-15.347656 13.074218-24.882812 26.511718-24.882812 7.980469 0 16.898438 3.507812 25.785157 10.140625 2.808593 2.09375 6.648437 2.117187 9.484375.058593 8.886718-6.457031 17.773437-9.871093 25.699218-9.871093 13.386719 0 23.609376 9.429687 26.683594 24.617187 4.75 24.589844-11.101562 57.753906-57.101562 76.890625-46-18.75-61.835938-52.054687-57.0625-76.953125zm0 0"/><path d="m81.945312 416.792969c3.148438 5.117187 9.046876 7.859375 14.988282 6.96875 5.941406-.894531 10.777344-5.246094 12.285156-11.0625l6.128906-23.777344c6.253906-24.1875 18.625-46.359375 35.917969-64.390625l2.054687-2.132812c2.277344-2.363282 6.03125-2.441407 8.402344-.179688l2.476563 2.367188c18.917969 18.105468 32.597656 40.984374 39.597656 66.21875l6.242187 22.492187c1.59375 5.742187 6.441407 9.996094 12.339844 10.828125 5.902344.832031 11.738282-1.914062 14.859375-6.992188 33.625-54.941406 57.972657-115.050781 72.0625-177.90625 61.273438-6.992187 107.269531-59.292968 106.382813-120.957031-.890625-61.664062-48.375-112.613281-109.824219-117.839843-61.449219-5.222657-116.855469 36.984374-128.136719 97.613281-18.074218 4.257812-35.734375 8.691406-44 10.820312-6.390625-3.074219-12.53125-6.640625-18.367187-10.671875-7.730469-5.109375-14.410157-9.519531-22.613281-10.171875-25.464844-2.007812-50.5 7.425781-68.308594 25.742188-17.804688 18.316406-26.53125 43.609375-23.808594 69.007812 5.082031 46.226563 22.410156 138.097657 81.320312 234.023438zm145.136719-374.941407c34.140625-29.984374 83.796875-34.332031 122.632813-10.738281 38.832031 23.597657 57.847656 69.671875 46.964844 113.789063-10.882813 44.117187-49.144532 76.0625-94.496094 78.890625-2.039063.140625-4.21875.210937-6.484375.210937-54.59375.019532-99.898438-42.203125-103.722657-96.660156.171876-1.070312.113282-2.164062-.175781-3.210938-.058593-1.371093-.097656-2.75-.097656-4.128906 0-4.78125.328125-9.554687.984375-14.289062v-.015625c3.417969-24.722657 15.628906-47.390625 34.394531-63.847657zm-61.480469 75.546876c3.308594-.804688 6.734376-1.632813 10.214844-2.460938-.042968 1.054688-.066406 2.109375-.085937 3.164062-3.476563-.117187-6.855469-.351562-10.128907-.703124zm-129.820312 7.640624c14.484375-14.992187 34.914062-22.722656 55.695312-21.070312 4.085938.324219 8.925782 3.523438 15.054688 7.570312 7.359375 5.105469 15.179688 9.507813 23.359375 13.148438 13.769531 5.898438 29.089844 9.007812 46.65625 9.453125 7.007813 59.261719 56.515625 104.363281 116.175781 105.828125-13.660156 58.835938-36.578125 115.128906-67.890625 166.78125l-5.609375-20.222656c-7.773437-28.015625-22.960937-53.410156-43.964844-73.507813l-2.476562-2.367187c-8.75-8.351563-22.605469-8.058594-31 .652344l-2.054688 2.136718c-19.199218 20.015625-32.933593 44.632813-39.875 71.484375l-5.53125 21.441407c-56.265624-92.515626-72.898437-180.78125-77.796874-225.347657-2.269532-20.601562 4.792968-41.136719 19.257812-55.980469zm0 0"/></g></svg>